<?xml version="1.0" encoding="utf-8"?>
<!-- Designed by Vexels.com - 2016 All Rights Reserved - https://vexels.com/terms-and-conditions/  -->

<svg version="1.1" id="Layer_1" xmlns="http://www.w3.org/2000/svg" xmlns:xlink="http://www.w3.org/1999/xlink" x="0px" y="0px"
	 width="1200px" height="1200px" viewBox="0 60 1200 1200" enable-background="new 0 0 1200 1200" xml:space="preserve">
<g>
	<path fill="#575756" d="M992,709.001L584.535,321.98L199.186,706.017c0,0,0,118.494,0,261.032
		c0,142.649,256.777,135.884,256.777,135.884l2.619-251.282h281.443v251.282C1020.668,1107.008,992,973.926,992,973.926V709.001z"/>
	<path fill="#575756" d="M1127.699,554.419c-68.686-74.583-452.798-424.312-452.798-424.312s-96.625-74.545-177.974,0
		C411.65,208.292,89.972,514.364,89.972,514.364s-97.43,82.801,11.932,171.424l481.464-470.876l501.111,472.407
		C1084.48,687.319,1196.387,629.073,1127.699,554.419z"/>
</g>
</svg>
